<svg width="128" height="128" viewBox="0 0 128 128" fill="none" xmlns="http://www.w3.org/2000/svg">
<g clip-path="url(#clip0_202_20)">
<mask id="mask0_202_20" style="mask-type:luminance" maskUnits="userSpaceOnUse" x="0" y="0" width="128" height="128">
<path d="M127.943 0H0V127.943H127.943V0Z" fill="white"/>
</mask>
<g mask="url(#mask0_202_20)">
<path d="M106.658 56.9561C108.755 56.9561 110.456 58.6525 110.463 60.7497C110.469 62.8554 108.763 64.566 106.658 64.566H46.7668C41.2289 64.566 35.2954 64.8316 30.9095 68.2127C27.1187 71.135 23.4796 76.5474 19.197 88.8868H41.0817C43.191 88.8868 44.9013 90.5972 44.9013 92.7068C44.9013 94.8161 43.191 96.5264 41.0817 96.5264H15.2267L11.6377 103.956C10.8397 105.607 9.16711 106.657 7.33273 106.657C3.87902 106.657 1.56471 103.107 2.95807 99.9468L17.0119 68.0723C17.0832 67.9107 17.1709 67.7535 17.2717 67.6086C22.2694 60.4126 26.2716 58.0479 35.4073 56.9561H106.658Z" fill="url(#paint0_linear_202_20)"/>
<path d="M52.249 72.7812C52.249 70.4393 54.1475 68.5408 56.4894 68.5408C58.8313 68.5408 60.7295 70.4393 60.7295 72.7812V102.728C60.7295 105.069 58.8313 106.968 56.4894 106.968C54.1475 106.968 52.249 105.069 52.249 102.728V72.7812Z" fill="url(#paint1_linear_202_20)"/>
<path d="M105.639 43.0397C107.976 43.0397 109.871 44.9342 109.871 47.2716C109.871 49.6154 107.966 51.5128 105.622 51.5038L39.0894 51.2461C37.6633 51.2404 36.2683 51.6617 35.0833 52.4552C32.8527 54.0796 31.0898 54.7188 29.3815 54.7026C25.9717 54.6707 25.4045 49.9873 27.8405 47.601C30.8254 44.6771 34.8374 43.0397 39.016 43.0397H105.639Z" fill="#B0B0B0"/>
<path d="M106.242 27.1378C108.58 27.1378 110.474 29.0323 110.474 31.3691C110.474 33.7129 108.569 35.6103 106.225 35.6004L46.1565 35.3447C44.8231 35.3391 43.523 35.7629 42.4493 36.5535C40.3041 38.2712 38.6347 38.8869 36.9965 38.7917C33.8818 38.6108 33.3969 34.3535 35.5195 32.0673C38.4384 28.9241 42.5344 27.1378 46.8242 27.1378H106.242Z" fill="#B0B0B0"/>
<path d="M70.421 72.7142C70.3837 70.4204 72.2327 68.5408 74.5269 68.5408H77.4183C78.6613 68.5408 79.5658 69.7202 79.2431 70.9208C79.2001 71.0804 79.1784 71.2454 79.1784 71.411V91.303C79.1784 94.8924 82.0882 97.8019 85.6773 97.8019H113.285C116.454 97.8019 119.064 95.312 119.212 92.1467L119.304 90.2024C119.455 86.9807 116.884 84.2859 113.659 84.2859H103.158C100.76 84.2859 98.8158 82.3416 98.8158 79.9432C98.8158 77.5581 100.739 75.6195 103.125 75.6008L122.138 75.4528C125.319 75.4282 127.893 78.0325 127.832 81.2131L127.587 93.9119C127.45 100.991 121.672 106.659 114.592 106.659H83.7607C76.6647 106.659 70.8798 100.967 70.7646 93.8721L70.421 72.7142Z" fill="url(#paint2_linear_202_20)"/>
<path d="M125.74 53.4046C125.74 63.9902 122.677 72.5713 118.899 72.5713C115.121 72.5713 112.058 63.9902 112.058 53.4046C112.058 43.0965 115.367 31.0176 118.635 21.721C118.723 21.4705 119.075 21.4704 119.163 21.721C122.401 30.9348 125.74 43.0993 125.74 53.4046Z" fill="url(#paint3_radial_202_20)"/>
<path opacity="0.7" d="M124.241 49.4075C124.241 58.305 121.849 65.5177 118.899 65.5177C115.949 65.5177 113.557 58.305 113.557 49.4075C113.557 40.8111 116.101 30.7489 118.634 22.9597C118.718 22.701 119.081 22.7009 119.165 22.9596C121.675 30.6816 124.241 40.8137 124.241 49.4075Z" fill="url(#paint4_radial_202_20)"/>
<g style="mix-blend-mode:color-dodge" opacity="0.2" filter="url(#filter0_f_202_20)">
<path fill-rule="evenodd" clip-rule="evenodd" d="M112.954 43.4585C112.42 46.8535 112.103 50.214 112.103 53.4046C112.103 54.0661 112.115 54.72 112.138 55.3642C112.488 65.0292 115.402 72.5713 118.944 72.5713L119.132 66.7717C115.585 66.0602 112.787 57.773 112.787 47.6545C112.787 46.2835 112.845 44.8812 112.954 43.4585Z" fill="url(#paint5_radial_202_20)"/>
</g>
<g style="mix-blend-mode:screen" opacity="0.4">
<path d="M123.437 33.54C123.437 40.4788 122.075 46.1041 120.396 46.1041C118.717 46.1041 117.356 40.4788 117.356 33.54C117.356 26.601 118.717 20.9758 120.396 20.9758C122.075 20.9758 123.437 26.601 123.437 33.54Z" fill="url(#paint6_radial_202_20)"/>
</g>
<g style="mix-blend-mode:lighten" filter="url(#filter1_f_202_20)">
<path d="M114.946 82.0876C118.535 82.0876 121.445 73.9354 121.445 63.8792C121.445 53.8229 118.535 45.6707 114.946 45.6707C111.357 45.6707 108.447 53.8229 108.447 63.8792C108.447 73.9354 111.357 82.0876 114.946 82.0876Z" fill="url(#paint7_radial_202_20)"/>
</g>
<g style="mix-blend-mode:lighten" filter="url(#filter2_f_202_20)">
<path d="M114.946 82.0876C118.535 82.0876 121.445 73.9354 121.445 63.8792C121.445 53.8229 118.535 45.6707 114.946 45.6707C111.357 45.6707 108.447 53.8229 108.447 63.8792C108.447 73.9354 111.357 82.0876 114.946 82.0876Z" fill="url(#paint8_radial_202_20)"/>
</g>
</g>
</g>
<defs>
<filter id="filter0_f_202_20" x="104.103" y="35.4585" width="23.0298" height="45.1128" filterUnits="userSpaceOnUse" color-interpolation-filters="sRGB">
<feFlood flood-opacity="0" result="BackgroundImageFix"/>
<feBlend mode="normal" in="SourceGraphic" in2="BackgroundImageFix" result="shape"/>
<feGaussianBlur stdDeviation="4" result="effect1_foregroundBlur_202_20"/>
</filter>
<filter id="filter1_f_202_20" x="58.4468" y="-4.32935" width="112.998" height="136.417" filterUnits="userSpaceOnUse" color-interpolation-filters="sRGB">
<feFlood flood-opacity="0" result="BackgroundImageFix"/>
<feBlend mode="normal" in="SourceGraphic" in2="BackgroundImageFix" result="shape"/>
<feGaussianBlur stdDeviation="25" result="effect1_foregroundBlur_202_20"/>
</filter>
<filter id="filter2_f_202_20" x="58.4468" y="-4.32935" width="112.998" height="136.417" filterUnits="userSpaceOnUse" color-interpolation-filters="sRGB">
<feFlood flood-opacity="0" result="BackgroundImageFix"/>
<feBlend mode="normal" in="SourceGraphic" in2="BackgroundImageFix" result="shape"/>
<feGaussianBlur stdDeviation="25" result="effect1_foregroundBlur_202_20"/>
</filter>
<linearGradient id="paint0_linear_202_20" x1="55.2368" y1="56.9561" x2="55.2368" y2="106.657" gradientUnits="userSpaceOnUse">
<stop stop-color="#1875F1"/>
<stop offset="0.792172" stop-color="#52BBF8"/>
</linearGradient>
<linearGradient id="paint1_linear_202_20" x1="56.4894" y1="68.5408" x2="56.4894" y2="106.968" gradientUnits="userSpaceOnUse">
<stop stop-color="#1875F1"/>
<stop offset="0.792172" stop-color="#52BBF8"/>
</linearGradient>
<linearGradient id="paint2_linear_202_20" x1="99.1486" y1="68.5408" x2="99.1486" y2="106.659" gradientUnits="userSpaceOnUse">
<stop stop-color="#1875F1"/>
<stop offset="0.792172" stop-color="#52BBF8"/>
</linearGradient>
<radialGradient id="paint3_radial_202_20" cx="0" cy="0" r="1" gradientUnits="userSpaceOnUse" gradientTransform="translate(117.616 63.4318) rotate(-63.1903) scale(23.6318 14.9988)">
<stop stop-color="#3CC7F5"/>
<stop offset="1" stop-color="#5686F5"/>
</radialGradient>
<radialGradient id="paint4_radial_202_20" cx="0" cy="0" r="1" gradientUnits="userSpaceOnUse" gradientTransform="translate(118.899 23.6058) rotate(90.5079) scale(41.9136 11.37)">
<stop stop-color="white"/>
<stop offset="0.9999" stop-color="#5988F5" stop-opacity="0"/>
<stop offset="1" stop-color="#5686F5"/>
</radialGradient>
<radialGradient id="paint5_radial_202_20" cx="0" cy="0" r="1" gradientUnits="userSpaceOnUse" gradientTransform="translate(117.977 54.5691) rotate(-74.8283) scale(43.0453 17.1429)">
<stop stop-color="#3CC7F5"/>
<stop offset="1" stop-color="#5686F5"/>
</radialGradient>
<radialGradient id="paint6_radial_202_20" cx="0" cy="0" r="1" gradientUnits="userSpaceOnUse" gradientTransform="translate(119.136 33.54) rotate(79.0928) scale(12.7953 2.17843)">
<stop stop-color="white"/>
<stop offset="0.761432" stop-color="#BDDBF1" stop-opacity="0.25"/>
<stop offset="1" stop-color="#5686F5" stop-opacity="0"/>
</radialGradient>
<radialGradient id="paint7_radial_202_20" cx="0" cy="0" r="1" gradientUnits="userSpaceOnUse" gradientTransform="translate(116.747 58.8219) rotate(82.0235) scale(16.7937 6.53741)">
<stop offset="0.0175822" stop-color="white"/>
<stop offset="0.458333" stop-color="#BDDBF1" stop-opacity="0.25"/>
<stop offset="1" stop-color="#5686F5" stop-opacity="0"/>
</radialGradient>
<radialGradient id="paint8_radial_202_20" cx="0" cy="0" r="1" gradientUnits="userSpaceOnUse" gradientTransform="translate(116.747 58.8219) rotate(82.0235) scale(16.7937 6.53741)">
<stop offset="0.0175822" stop-color="white"/>
<stop offset="0.458333" stop-color="#BDDBF1" stop-opacity="0.25"/>
<stop offset="1" stop-color="#5686F5" stop-opacity="0"/>
</radialGradient>
<clipPath id="clip0_202_20">
<rect width="128" height="128" fill="white"/>
</clipPath>
</defs>
</svg>
