<svg width="453" height="453" viewBox="0 0 453 453" fill="none" xmlns="http://www.w3.org/2000/svg">
<g clip-path="url(#clip0_23_2)">
<path d="M377.467 201.571C384.889 201.571 390.911 207.575 390.934 214.997C390.956 222.449 384.92 228.503 377.467 228.503H165.51C145.911 228.503 124.912 229.443 109.39 241.409C95.9741 251.751 83.0951 270.906 67.9387 314.576H145.39C152.855 314.576 158.908 320.629 158.908 328.095C158.908 335.56 152.855 341.613 145.39 341.613H53.8876L41.186 367.905C38.3619 373.75 32.4424 377.465 25.9504 377.465C13.7275 377.465 5.53701 364.902 10.4682 353.718L60.2057 240.912C60.4579 240.34 60.7684 239.784 61.1249 239.271C78.8121 213.804 92.9763 205.435 125.308 201.571L377.467 201.571Z" fill="url(#paint0_linear_23_2)"/>
<path d="M184.912 257.577C184.912 249.289 191.631 242.57 199.919 242.57C208.207 242.57 214.925 249.289 214.925 257.577V363.559C214.925 371.847 208.207 378.565 199.919 378.565C191.631 378.565 184.912 371.847 184.912 363.559V257.577Z" fill="url(#paint1_linear_23_2)"/>
<path d="M373.861 152.32C382.133 152.32 388.838 159.025 388.838 167.297C388.838 175.592 382.097 182.307 373.803 182.275L138.339 181.363C133.292 181.343 128.355 182.834 124.161 185.642C116.267 191.391 110.028 193.653 103.982 193.596C91.9144 193.483 89.9072 176.908 98.5285 168.463C109.092 158.115 123.291 152.32 138.079 152.32L373.861 152.32Z" fill="#B0B0B0"/>
<path d="M375.999 96.0423C384.27 96.0423 390.974 102.747 390.974 111.017C390.974 119.312 384.231 126.027 375.936 125.992L163.351 125.087C158.632 125.067 154.031 126.567 150.231 129.365C142.639 135.444 136.731 137.623 130.933 137.286C119.91 136.646 118.194 121.579 125.706 113.488C136.036 102.364 150.532 96.0423 165.714 96.0423L375.999 96.0423Z" fill="#B0B0B0"/>
<path d="M249.224 257.34C249.092 249.222 255.636 242.57 263.755 242.57L273.988 242.57C278.387 242.57 281.588 246.744 280.446 250.993C280.294 251.558 280.217 252.142 280.217 252.728V323.127C280.217 335.83 290.515 346.127 303.217 346.127H400.923C412.138 346.127 421.373 337.315 421.9 326.113L422.223 319.232C422.759 307.83 413.659 298.293 402.245 298.293H365.084C356.596 298.293 349.715 291.412 349.715 282.924C349.715 274.483 356.523 267.622 364.964 267.556L432.253 267.032C443.511 266.945 452.622 276.162 452.405 287.418L451.538 332.36C451.055 357.414 430.606 377.472 405.547 377.472H296.434C271.321 377.472 250.848 357.33 250.44 332.219L249.224 257.34Z" fill="url(#paint2_linear_23_2)"/>
<path d="M445.002 189.002C445.002 226.465 434.162 256.834 420.791 256.834C407.419 256.834 396.58 226.465 396.58 189.002C396.58 152.521 408.29 109.773 419.857 76.8717C420.168 75.9851 421.413 75.985 421.725 76.8717C433.185 109.48 445.002 152.531 445.002 189.002Z" fill="url(#paint3_radial_23_2)"/>
<path opacity="0.7" d="M439.697 174.856C439.697 206.345 431.232 231.871 420.791 231.871C410.349 231.871 401.885 206.345 401.885 174.856C401.885 144.433 410.888 108.822 419.851 81.2555C420.148 80.3401 421.433 80.3398 421.731 81.2552C430.613 108.584 439.697 144.442 439.697 174.856Z" fill="url(#paint4_radial_23_2)"/>
<g style="mix-blend-mode:color-dodge" opacity="0.2" filter="url(#filter0_f_23_2)">
<path fill-rule="evenodd" clip-rule="evenodd" d="M399.753 153.802C397.86 165.817 396.738 177.71 396.738 189.002C396.738 191.343 396.781 193.657 396.863 195.937C398.103 230.142 408.414 256.834 420.949 256.834L421.616 236.309C409.064 233.791 399.159 204.462 399.159 168.652C399.159 163.8 399.366 158.837 399.753 153.802Z" fill="url(#paint5_radial_23_2)"/>
</g>
<g style="mix-blend-mode:screen" opacity="0.4">
<path d="M436.849 118.7C436.849 143.257 432.031 163.165 426.089 163.165C420.146 163.165 415.329 143.257 415.329 118.7C415.329 94.1424 420.146 74.2346 426.089 74.2346C432.031 74.2346 436.849 94.1424 436.849 118.7Z" fill="url(#paint6_radial_23_2)"/>
</g>
<g style="mix-blend-mode:lighten" filter="url(#filter1_f_23_2)">
<ellipse cx="406.8" cy="226.072" rx="23.0006" ry="64.441" fill="url(#paint7_radial_23_2)"/>
</g>
<g style="mix-blend-mode:lighten" filter="url(#filter2_f_23_2)">
<ellipse cx="406.8" cy="226.072" rx="23.0006" ry="64.441" fill="url(#paint8_radial_23_2)"/>
</g>
</g>
<defs>
<filter id="filter0_f_23_2" x="388.738" y="145.802" width="40.8779" height="119.033" filterUnits="userSpaceOnUse" color-interpolation-filters="sRGB">
<feFlood flood-opacity="0" result="BackgroundImageFix"/>
<feBlend mode="normal" in="SourceGraphic" in2="BackgroundImageFix" result="shape"/>
<feGaussianBlur stdDeviation="4" result="effect1_foregroundBlur_23_2"/>
</filter>
<filter id="filter1_f_23_2" x="333.8" y="111.631" width="146.001" height="228.882" filterUnits="userSpaceOnUse" color-interpolation-filters="sRGB">
<feFlood flood-opacity="0" result="BackgroundImageFix"/>
<feBlend mode="normal" in="SourceGraphic" in2="BackgroundImageFix" result="shape"/>
<feGaussianBlur stdDeviation="25" result="effect1_foregroundBlur_23_2"/>
</filter>
<filter id="filter2_f_23_2" x="333.8" y="111.631" width="146.001" height="228.882" filterUnits="userSpaceOnUse" color-interpolation-filters="sRGB">
<feFlood flood-opacity="0" result="BackgroundImageFix"/>
<feBlend mode="normal" in="SourceGraphic" in2="BackgroundImageFix" result="shape"/>
<feGaussianBlur stdDeviation="25" result="effect1_foregroundBlur_23_2"/>
</filter>
<linearGradient id="paint0_linear_23_2" x1="195.486" y1="201.571" x2="195.486" y2="377.465" gradientUnits="userSpaceOnUse">
<stop stop-color="#1875F1"/>
<stop offset="0.792172" stop-color="#52BBF8"/>
</linearGradient>
<linearGradient id="paint1_linear_23_2" x1="199.919" y1="242.57" x2="199.919" y2="378.565" gradientUnits="userSpaceOnUse">
<stop stop-color="#1875F1"/>
<stop offset="0.792172" stop-color="#52BBF8"/>
</linearGradient>
<linearGradient id="paint2_linear_23_2" x1="350.893" y1="242.57" x2="350.893" y2="377.472" gradientUnits="userSpaceOnUse">
<stop stop-color="#1875F1"/>
<stop offset="0.792172" stop-color="#52BBF8"/>
</linearGradient>
<radialGradient id="paint3_radial_23_2" cx="0" cy="0" r="1" gradientUnits="userSpaceOnUse" gradientTransform="translate(416.25 224.489) rotate(-63.1903) scale(83.6343 53.0816)">
<stop stop-color="#3CC7F5"/>
<stop offset="1" stop-color="#5686F5"/>
</radialGradient>
<radialGradient id="paint4_radial_23_2" cx="0" cy="0" r="1" gradientUnits="userSpaceOnUse" gradientTransform="translate(420.791 83.5423) rotate(90.5079) scale(148.335 40.2393)">
<stop stop-color="white"/>
<stop offset="0.9999" stop-color="#5988F5" stop-opacity="0"/>
<stop offset="1" stop-color="#5686F5"/>
</radialGradient>
<radialGradient id="paint5_radial_23_2" cx="0" cy="0" r="1" gradientUnits="userSpaceOnUse" gradientTransform="translate(417.529 193.123) rotate(-74.8283) scale(152.34 60.6699)">
<stop stop-color="#3CC7F5"/>
<stop offset="1" stop-color="#5686F5"/>
</radialGradient>
<radialGradient id="paint6_radial_23_2" cx="0" cy="0" r="1" gradientUnits="userSpaceOnUse" gradientTransform="translate(421.627 118.7) rotate(79.0928) scale(45.2834 7.70961)">
<stop stop-color="white"/>
<stop offset="0.761432" stop-color="#BDDBF1" stop-opacity="0.25"/>
<stop offset="1" stop-color="#5686F5" stop-opacity="0"/>
</radialGradient>
<radialGradient id="paint7_radial_23_2" cx="0" cy="0" r="1" gradientUnits="userSpaceOnUse" gradientTransform="translate(413.173 208.174) rotate(82.0235) scale(59.4341 23.1363)">
<stop offset="0.0175822" stop-color="white"/>
<stop offset="0.458333" stop-color="#BDDBF1" stop-opacity="0.25"/>
<stop offset="1" stop-color="#5686F5" stop-opacity="0"/>
</radialGradient>
<radialGradient id="paint8_radial_23_2" cx="0" cy="0" r="1" gradientUnits="userSpaceOnUse" gradientTransform="translate(413.173 208.174) rotate(82.0235) scale(59.4341 23.1363)">
<stop offset="0.0175822" stop-color="white"/>
<stop offset="0.458333" stop-color="#BDDBF1" stop-opacity="0.25"/>
<stop offset="1" stop-color="#5686F5" stop-opacity="0"/>
</radialGradient>
<clipPath id="clip0_23_2">
<rect width="452.8" height="452.8" fill="white"/>
</clipPath>
</defs>
</svg>
